<?xml version="1.0" standalone="no"?>
<!DOCTYPE svg PUBLIC "-//W3C//DTD SVG 20010904//EN"
 "http://www.w3.org/TR/2001/REC-SVG-20010904/DTD/svg10.dtd">
<svg version="1.0" xmlns="http://www.w3.org/2000/svg"
 width="612.000000pt" height="612.000000pt" viewBox="0 0 612.000000 612.000000"
 preserveAspectRatio="xMidYMid meet">
<metadata>
Created by potrace 1.11, written by Peter Selinger 2001-2013
</metadata>
<g transform="translate(0.000000,612.000000) scale(0.100000,-0.100000)"
fill="#000000" stroke="none">
<path d="M1901 5499 c-116 -23 -238 -110 -301 -215 -60 -100 -69 -155 -69
-445 l-1 -256 87 -7 c170 -13 326 -61 526 -164 4 -2 7 105 7 237 l0 241 1680
0 1680 0 0 -1375 0 -1375 -300 0 -300 0 0 305 0 305 -620 0 -620 0 0 -305 0
-305 -366 0 -367 0 84 -87 c47 -49 106 -120 132 -160 55 -82 127 -232 153
-316 l18 -57 1200 0 c774 0 1217 4 1245 11 129 29 255 133 314 256 l32 68 0
1660 0 1660 -34 70 c-64 131 -191 228 -330 255 -67 12 -3785 12 -3850 -1z"/>
<path d="M2680 4210 c0 -493 1 -510 19 -520 11 -5 35 -10 55 -10 67 0 66 -4
66 439 l0 395 60 -84 c42 -61 59 -94 60 -117 0 -19 8 -41 20 -53 20 -20 65
-26 86 -12 17 11 34 48 34 73 0 12 26 60 58 106 l57 85 3 -398 c3 -446 1 -434
73 -434 72 0 69 -27 69 536 l0 504 -88 0 -88 0 -72 -105 c-40 -57 -76 -106
-80 -108 -4 -3 -41 44 -82 104 l-75 108 -87 1 -88 0 0 -510z"/>
<path d="M3649 4704 c-11 -14 -15 -92 -17 -432 l-3 -416 33 -64 c55 -108 61
-112 173 -112 80 0 98 3 114 19 18 18 19 18 35 0 13 -16 30 -19 114 -19 113 0
114 1 170 101 l32 56 0 426 c0 476 3 457 -70 457 -73 0 -70 16 -70 -433 0
-383 -1 -404 -20 -434 -26 -43 -59 -44 -82 -2 -16 27 -18 60 -18 252 0 255 -4
270 -64 275 -25 2 -44 -2 -57 -14 -18 -16 -19 -34 -19 -245 0 -213 -1 -230
-21 -263 -27 -46 -62 -49 -84 -6 -13 24 -15 89 -15 422 0 296 -3 399 -13 418
-10 20 -21 26 -58 28 -34 2 -50 -2 -60 -14z"/>
<path d="M4659 4696 c-59 -41 -83 -123 -55 -189 7 -18 126 -176 264 -352 137
-176 248 -323 245 -327 -5 -10 -344 -10 -359 0 -6 4 -17 27 -25 52 -13 43 -16
45 -55 48 -121 9 -105 -172 20 -229 36 -16 68 -19 241 -19 220 0 265 10 300
64 25 37 30 105 12 146 -8 19 -125 177 -261 350 -135 173 -246 321 -246 328 0
9 43 12 180 12 167 0 180 -1 190 -19 5 -11 10 -29 10 -40 0 -31 28 -51 70 -51
31 0 43 5 56 25 24 37 14 107 -23 153 -54 68 -71 72 -313 72 -212 0 -216 0
-251 -24z"/>
<path d="M1335 4263 c-189 -40 -380 -155 -505 -305 -97 -115 -149 -219 -192
-376 -27 -102 -30 -323 -5 -424 71 -289 254 -515 512 -634 139 -64 211 -79
390 -79 137 0 172 4 239 23 340 98 578 345 663 690 25 101 22 322 -5 424 -43
157 -95 261 -192 376 -127 153 -318 266 -512 306 -97 20 -298 20 -393 -1z"/>
<path d="M2660 3156 c0 -181 2 -215 15 -220 35 -13 45 4 45 80 l0 74 68 1 c93
1 114 9 135 49 14 27 17 52 15 109 -3 66 -6 76 -31 97 -26 22 -37 24 -138 24
l-109 0 0 -214z m194 148 c12 -5 16 -21 16 -75 l0 -69 -75 0 -75 0 0 75 0 75
59 0 c33 0 66 -3 75 -6z"/>
<path d="M3050 3161 c0 -178 2 -210 16 -222 11 -9 20 -10 32 -2 14 8 18 32 22
118 l5 108 75 -111 c77 -113 89 -126 115 -116 27 11 16 42 -50 136 l-65 93 43
3 c61 5 87 33 87 93 0 26 -3 55 -6 64 -13 33 -59 45 -169 45 l-105 0 0 -209z
m208 140 c8 -5 12 -21 10 -37 -3 -29 -4 -29 -75 -32 l-73 -3 0 41 0 40 63 0
c34 0 68 -4 75 -9z"/>
<path d="M3547 3359 c-28 -16 -97 -166 -97 -210 0 -56 72 -193 109 -209 50
-20 80 2 126 95 50 100 51 135 2 232 -49 95 -89 122 -140 92z m78 -119 c19
-38 35 -79 35 -90 0 -23 -61 -150 -72 -150 -5 0 -25 34 -45 75 l-37 75 39 80
c21 44 40 80 42 80 1 0 19 -31 38 -70z"/>
<path d="M4037 3364 c-4 -4 -7 -88 -7 -186 l0 -178 -44 0 c-51 0 -56 8 -56 80
0 35 -4 50 -16 54 -30 12 -44 -13 -44 -80 0 -81 24 -114 91 -121 57 -7 116 17
124 49 3 13 4 104 3 203 -3 173 -4 180 -23 183 -12 2 -24 0 -28 -4z"/>
<path d="M4240 3150 l0 -220 129 0 c105 0 131 3 142 16 9 11 10 20 2 32 -8 14
-30 18 -112 20 l-101 3 0 59 0 59 53 3 c48 3 52 5 52 28 0 23 -4 25 -52 28
l-53 3 0 65 0 64 104 0 c60 0 108 4 111 10 3 6 3 19 0 30 -6 19 -15 20 -141
20 l-134 0 0 -220z"/>
<path d="M4732 3355 c-25 -18 -86 -132 -96 -182 -6 -24 1 -50 25 -108 46 -112
63 -128 137 -133 83 -6 112 2 112 32 0 30 -16 36 -89 36 l-57 0 -32 65 c-18
36 -32 74 -32 85 0 24 57 141 74 152 6 4 39 8 74 8 63 0 63 0 60 28 -3 26 -4
27 -78 30 -56 2 -81 -1 -98 -13z"/>
<path d="M5032 3318 c3 -49 5 -53 28 -53 18 0 26 6 28 23 3 16 10 22 28 22
l24 0 0 -184 c0 -114 4 -187 10 -191 6 -3 19 -3 30 0 19 6 20 15 20 191 0 174
1 184 19 184 12 0 21 -9 25 -25 5 -18 13 -25 30 -25 28 0 36 16 36 71 l0 39
-141 0 -140 0 3 -52z"/>
<path d="M883 2126 c-268 -50 -502 -194 -665 -410 -125 -166 -204 -380 -215
-586 -7 -123 5 -194 48 -279 37 -73 135 -168 216 -207 l58 -29 1210 0 1210 0
58 29 c81 39 179 134 216 207 43 85 55 156 48 279 -22 404 -284 776 -652 926
-142 58 -225 76 -365 78 -112 1 -136 -2 -225 -28 -95 -29 -109 -30 -290 -30
-180 0 -195 2 -290 29 -117 34 -250 41 -362 21z"/>
</g>
</svg>
